<?xml version="1.0" encoding="utf-8"?>
<!-- Generator: Adobe Illustrator 23.0.3, SVG Export Plug-In . SVG Version: 6.00 Build 0)  -->
<svg version="1.1" baseProfile="tiny" id="Layer_1" xmlns="http://www.w3.org/2000/svg" xmlns:xlink="http://www.w3.org/1999/xlink"
	 x="0px" y="0px" viewBox="0 0 250 200" xml:space="preserve">
<path fill="#F3FAF7" d="M235.2,52.5c2.3,8-1.5,16.6-9.6,19.4c-7.8,2.6-15.5,5.2-23.3,7.8c2.2,7.9-1.5,16.5-9.6,19.3
	c-2.6,0.9-5.1,1.7-7.7,2.6c-3.6,3.7-8.6,5.5-13.7,4.6c-2.5,0.8-4.9,1.7-7.4,2.5c3.9,1.7,7.2,4.8,8.4,9.1c2.1,7.2-0.9,15-7.5,18.4
	c11.7-3.9,23.3-7.9,35-11.8c7.6-2.6,17.1,1.7,19.4,9.6c2.3,8-1.5,16.6-9.6,19.4c-37.6,12.7-75.2,25.3-112.7,38
	c-7.6,2.6-17.1-1.7-19.4-9.6c-2.1-7.2,0.9-15,7.5-18.4c-3.7,1.2-7.3,2.5-11,3.7c-7.6,2.6-17.1-1.7-19.4-9.6
	c-2.3-8,1.5-16.6,9.6-19.4c7.6-2.6,15.2-5.1,22.8-7.7c-2-1.8-3.4-3.9-4.3-6.5c-0.1-0.4-0.1-0.8-0.2-1.2c-2.4,0.8-4.8,1.6-7.3,2.4
	c-7.6,2.6-17.1-1.7-19.4-9.6c-0.3-1-0.5-2-0.6-3c-7.5,2.5-15,5.1-22.5,7.6c-7.6,2.6-17.1-1.7-19.4-9.6c-2.3-8,1.5-16.6,9.6-19.4
	c10.6-3.6,21.3-7.2,31.9-10.8c-2.5-1.8-4.5-4.3-5.4-7.4c-2.3-8,1.5-16.6,9.6-19.4c38-12.8,76-25.6,113.9-38.4
	c7.6-2.6,17.1,1.7,19.4,9.6c1.8,6.2-0.1,12.8-4.9,16.8c1.8,1.7,3.3,3.8,4,6.3c0.3,1,0.5,2,0.6,3c7.9-2.7,15.8-5.3,23.7-8
	C223.4,40.3,232.9,44.5,235.2,52.5z"/>
<g>
	<circle fill="#FFFFFF" cx="122.9" cy="94.4" r="36.5"/>
	<path fill="#C3E2EA" stroke="#205B7B" stroke-width="2" stroke-miterlimit="10" d="M89.5,133c17.6,15.6,42.4,16.6,60.9,3.9
		c0,0,1.3-0.9,2.6,0.2l27.1,24c5.4,4.8,12.6,5.6,16.8,0.8l0.7-0.8c4.2-4.8,2.6-11.8-2.8-16.6l-27.1-24c-1.2-1.1-0.4-2.5-0.4-2.5
		c10.4-19.9,6.4-44.4-11.2-60c-20.7-18.3-52.5-16.4-70.8,4.3C66.9,82.9,68.8,114.7,89.5,133L89.5,133z M150.5,120
		c-13.6,15.3-37,16.7-52.3,3.2c-15.3-13.6-16.7-37-3.2-52.3c13.6-15.3,37-16.7,52.3-3.2C162.7,81.2,164.1,104.7,150.5,120L150.5,120
		z M150.5,120"/>
	<g>
		<path fill="#205B7B" d="M115.7,112c-0.5,0-1-0.4-1-1c0-4.2,3.4-7.6,7.5-7.6h3.3c4.2,0,7.5,3.4,7.5,7.6c0,0.5-0.4,1-1,1
			c-0.5,0-1-0.4-1-1c0-3.1-2.5-5.6-5.6-5.6h-3.3c-3.1,0-5.6,2.5-5.6,5.7C116.7,111.6,116.2,112,115.7,112L115.7,112z M115.7,112"/>
		<path fill="#205B7B" d="M136.8,88.4c0,1.3-1.1,2.4-2.4,2.4c-1.3,0-2.4-1.1-2.4-2.4c0-1.3,1.1-2.4,2.4-2.4
			C135.8,86,136.8,87.1,136.8,88.4L136.8,88.4z M136.8,88.4"/>
		<path fill="#205B7B" d="M115.3,88.4c0,1.3-1.1,2.4-2.4,2.4c-1.3,0-2.4-1.1-2.4-2.4c0-1.3,1.1-2.4,2.4-2.4
			C114.2,86,115.3,87.1,115.3,88.4L115.3,88.4z M115.3,88.4"/>
	</g>
</g>
</svg>
